<?xml version="1.0" encoding="UTF-8" standalone="no"?>
<svg
   xmlns:dc="http://purl.org/dc/elements/1.1/"
   xmlns:cc="http://creativecommons.org/ns#"
   xmlns:rdf="http://www.w3.org/1999/02/22-rdf-syntax-ns#"
   xmlns:svg="http://www.w3.org/2000/svg"
   xmlns="http://www.w3.org/2000/svg"
   xmlns:sodipodi="http://sodipodi.sourceforge.net/DTD/sodipodi-0.dtd"
   xmlns:inkscape="http://www.inkscape.org/namespaces/inkscape"
   version="1.0"
   width="28.685471"
   height="23.0945"
   viewBox="0 0 4.3028205 3.4641748"
   id="svg6"
   sodipodi:docname="speaker-icon-hover.svg"
   inkscape:version="0.92.5 (2060ec1f9f, 2020-04-08)">
  <metadata
     id="metadata12">
    <rdf:RDF>
      <cc:Work
         rdf:about="">
        <dc:format>image/svg+xml</dc:format>
        <dc:type
           rdf:resource="http://purl.org/dc/dcmitype/StillImage" />
        <dc:title></dc:title>
      </cc:Work>
    </rdf:RDF>
  </metadata>
  <defs
     id="defs10" />
  <sodipodi:namedview
     pagecolor="#ffffff"
     bordercolor="#666666"
     borderopacity="1"
     objecttolerance="10"
     gridtolerance="10"
     guidetolerance="10"
     inkscape:pageopacity="0"
     inkscape:pageshadow="2"
     inkscape:window-width="3264"
     inkscape:window-height="2002"
     id="namedview8"
     showgrid="false"
     inkscape:zoom="42.720563"
     inkscape:cx="19.723864"
     inkscape:cy="17.608795"
     inkscape:window-x="144"
     inkscape:window-y="54"
     inkscape:window-maximized="1"
     inkscape:current-layer="svg6"
     fit-margin-top="0"
     fit-margin-left="0"
     fit-margin-right="0"
     fit-margin-bottom="0" />
  <path
     d="M 2.1556982,0.14828933 1.0481825,1.1062124 H 0 v 1.2327038 h 1.0322998 l 1.1233984,0.9717392"
     style="fill:#003a83;fill-opacity:1;stroke:none;stroke-width:0.32281563;stroke-linejoin:round"
     id="path2"
     inkscape:connector-curvature="0"
     sodipodi:nodetypes="cccccc" />
  <path
     d="m 2.4799126,1.0517955 a 1.2589809,1.2589809 0 0 1 0,1.3816509 M 2.9383108,0.5933973 a 1.9368938,1.9368938 0 0 1 0,2.2984471 M 3.357972,0.1737371 a 2.5050493,2.5050493 0 0 1 0,3.1377678"
     style="fill:none;stroke:#0874ff;stroke-width:0.32279998;stroke-linecap:round;stroke-miterlimit:4;stroke-dasharray:none;stroke-opacity:1"
     id="path4"
     inkscape:connector-curvature="0" />
  <path
     style="opacity:0;fill:#003a83;fill-opacity:1;stroke-width:0.03310381"
     d="M 23.582436,23.004298 C 22.902132,22.769202 22.652387,21.909071 23.101194,21.346882 25.54407,18.286859 26.779953,14.377815 26.515781,10.546691 26.300201,7.420261 25.243228,4.5914505 23.347779,2.068065 22.924927,1.5051267 22.859643,1.3579382 22.883697,1.0217498 c 0.01985,-0.27748254 0.113462,-0.49012943 0.296116,-0.67268067 0.366036,-0.36582817 0.905163,-0.41981623 1.345162,-0.13470423 0.15143,0.098124 0.498242,0.52151305 0.915374,1.1174907 2.109649,3.0141642 3.230536,6.5636921 3.228741,10.2245014 -0.0017,3.461986 -1.005286,6.821887 -2.903806,9.721612 -0.457411,0.698633 -1.050331,1.474114 -1.21225,1.585504 -0.292869,0.201477 -0.646581,0.252797 -0.970598,0.140825 z"
     id="path4861"
     inkscape:connector-curvature="0"
     transform="scale(0.15)" />
  <path
     style="opacity:0;fill:#003a83;fill-opacity:1;stroke-width:0.03310381"
     d="M 23.582436,23.004298 C 22.902132,22.769202 22.652387,21.909071 23.101194,21.346882 25.54407,18.286859 26.779953,14.377815 26.515781,10.546691 26.300201,7.420261 25.243228,4.5914505 23.347779,2.068065 22.924927,1.5051267 22.859643,1.3579382 22.883697,1.0217498 c 0.01985,-0.27748254 0.113462,-0.49012943 0.296116,-0.67268067 0.366036,-0.36582817 0.905163,-0.41981623 1.345162,-0.13470423 0.15143,0.098124 0.498242,0.52151305 0.915374,1.1174907 2.109649,3.0141642 3.230536,6.5636921 3.228741,10.2245014 -0.0017,3.461986 -1.005286,6.821887 -2.903806,9.721612 -0.457411,0.698633 -1.050331,1.474114 -1.21225,1.585504 -0.292869,0.201477 -0.646581,0.252797 -0.970598,0.140825 z"
     id="path4863"
     inkscape:connector-curvature="0"
     transform="scale(0.15)" />
  <path
     style="opacity:0;fill:#003a83;fill-opacity:1;stroke-width:0.03310381"
     d="M 23.582436,23.004298 C 22.902132,22.769202 22.652387,21.909071 23.101194,21.346882 25.54407,18.286859 26.779953,14.377815 26.515781,10.546691 26.300201,7.420261 25.243228,4.5914505 23.347779,2.068065 22.924927,1.5051267 22.859643,1.3579382 22.883697,1.0217498 c 0.01985,-0.27748254 0.113462,-0.49012943 0.296116,-0.67268067 0.366036,-0.36582817 0.905163,-0.41981623 1.345162,-0.13470423 0.15143,0.098124 0.498242,0.52151305 0.915374,1.1174907 2.109649,3.0141642 3.230536,6.5636921 3.228741,10.2245014 -0.0017,3.461986 -1.005286,6.821887 -2.903806,9.721612 -0.457411,0.698633 -1.050331,1.474114 -1.21225,1.585504 -0.292869,0.201477 -0.646581,0.252797 -0.970598,0.140825 z"
     id="path4865"
     inkscape:connector-curvature="0"
     transform="scale(0.15)" />
  <path
     style="opacity:0;fill:#003a83;fill-opacity:1;stroke-width:0.03310381"
     d="M 23.582436,23.004298 C 22.902132,22.769202 22.652387,21.909071 23.101194,21.346882 25.54407,18.286859 26.779953,14.377815 26.515781,10.546691 26.300201,7.420261 25.243228,4.5914505 23.347779,2.068065 22.924927,1.5051267 22.859643,1.3579382 22.883697,1.0217498 c 0.01985,-0.27748254 0.113462,-0.49012943 0.296116,-0.67268067 0.366036,-0.36582817 0.905163,-0.41981623 1.345162,-0.13470423 0.15143,0.098124 0.498242,0.52151305 0.915374,1.1174907 2.109649,3.0141642 3.230536,6.5636921 3.228741,10.2245014 -0.0017,3.461986 -1.005286,6.821887 -2.903806,9.721612 -0.457411,0.698633 -1.050331,1.474114 -1.21225,1.585504 -0.292869,0.201477 -0.646581,0.252797 -0.970598,0.140825 z"
     id="path4867"
     inkscape:connector-curvature="0"
     transform="scale(0.15)" />
  <path
     style="opacity:0;fill:#003a83;fill-opacity:1;stroke-width:0.03310381"
     d="m 20.949643,20.249922 c -0.494102,-0.08037 -0.86835,-0.529532 -0.867332,-1.040941 5.75e-4,-0.289063 0.05692,-0.42023 0.386042,-0.898671 0.65713,-0.955264 1.180667,-2.007609 1.534612,-3.084673 0.22803,-0.693899 0.410335,-1.528076 0.514901,-2.356036 0.05894,-0.466673 0.05894,-2.181632 0,-2.648305 C 22.343775,8.8428279 22.002082,7.6488561 21.447334,6.4805646 21.118703,5.7884706 20.863952,5.3586242 20.26763,4.4900253 19.90977,3.9687701 20.077448,3.2599805 20.631187,2.9532342 c 0.160265,-0.08878 0.204312,-0.097537 0.490561,-0.097537 0.49659,0 0.670428,0.1128898 1.08258,0.703025 1.504863,2.1547205 2.392019,4.7881601 2.487054,7.3825808 0.08701,2.375357 -0.344901,4.507291 -1.342985,6.629039 -0.362974,0.771619 -1.179092,2.097306 -1.470595,2.388809 -0.236177,0.236177 -0.587387,0.346203 -0.928159,0.290771 z"
     id="path4869"
     inkscape:connector-curvature="0"
     transform="scale(0.15)" />
  <path
     style="opacity:0;fill:#003a83;fill-opacity:1;stroke-width:0.03310381"
     d="M 17.681023,17.13364 C 17.4617,17.04943 17.20617,16.804912 17.109785,16.587019 c -0.08311,-0.187875 -0.11311,-0.508656 -0.06441,-0.688581 0.01974,-0.07292 0.11973,-0.274023 0.222205,-0.446901 0.689032,-1.162421 1.029738,-2.229858 1.102608,-3.454482 0.09117,-1.53216 -0.291931,-3.0537506 -1.089124,-4.3257728 -0.215059,-0.343153 -0.277587,-0.5409036 -0.256013,-0.8096688 0.03022,-0.3765046 0.276731,-0.7329304 0.614293,-0.8882056 0.240075,-0.1104315 0.656756,-0.1023527 0.900717,0.017464 0.241082,0.1184024 0.348334,0.2359716 0.612816,0.6717642 0.895157,1.4749701 1.35034,3.1217667 1.349633,4.882812 -5.23e-4,1.304724 -0.21001,2.385601 -0.692916,3.575212 -0.308272,0.759409 -0.802785,1.628058 -1.044739,1.835162 -0.28704,0.245695 -0.72143,0.316963 -1.083835,0.177818 z"
     id="path4871"
     inkscape:connector-curvature="0"
     transform="scale(0.15)" />
  <path
     style="opacity:0;fill:#003a83;fill-opacity:1;stroke-width:0.03310381"
     d="m 20.949643,20.249922 c -0.494102,-0.08037 -0.86835,-0.529532 -0.867332,-1.040941 5.75e-4,-0.289063 0.05692,-0.42023 0.386042,-0.898671 0.65713,-0.955264 1.180667,-2.007609 1.534612,-3.084673 0.22803,-0.693899 0.410335,-1.528076 0.514901,-2.356036 0.05894,-0.466673 0.05894,-2.181632 0,-2.648305 C 22.343775,8.8428279 22.002082,7.6488561 21.447334,6.4805646 21.118703,5.7884706 20.863952,5.3586242 20.26763,4.4900253 19.90977,3.9687701 20.077448,3.2599805 20.631187,2.9532342 c 0.160265,-0.08878 0.204312,-0.097537 0.490561,-0.097537 0.49659,0 0.670428,0.1128898 1.08258,0.703025 1.504863,2.1547205 2.392019,4.7881601 2.487054,7.3825808 0.08701,2.375357 -0.344901,4.507291 -1.342985,6.629039 -0.362974,0.771619 -1.179092,2.097306 -1.470595,2.388809 -0.236177,0.236177 -0.587387,0.346203 -0.928159,0.290771 z"
     id="path4873"
     inkscape:connector-curvature="0"
     transform="scale(0.15)" />
  <path
     style="opacity:0;fill:#003a83;fill-opacity:1;stroke-width:0.03310381"
     d="M 23.582436,23.004298 C 22.902132,22.769202 22.652387,21.909071 23.101194,21.346882 25.54407,18.286859 26.779953,14.377815 26.515781,10.546691 26.300201,7.420261 25.243228,4.5914505 23.347779,2.068065 22.924927,1.5051267 22.859643,1.3579382 22.883697,1.0217498 c 0.01985,-0.27748254 0.113462,-0.49012943 0.296116,-0.67268067 0.366036,-0.36582817 0.905163,-0.41981623 1.345162,-0.13470423 0.15143,0.098124 0.498242,0.52151305 0.915374,1.1174907 2.109649,3.0141642 3.230536,6.5636921 3.228741,10.2245014 -0.0017,3.461986 -1.005286,6.821887 -2.903806,9.721612 -0.457411,0.698633 -1.050331,1.474114 -1.21225,1.585504 -0.292869,0.201477 -0.646581,0.252797 -0.970598,0.140825 z"
     id="path4875"
     inkscape:connector-curvature="0"
     transform="scale(0.15)" />
  <path
     style="opacity:0;fill:#003a83;fill-opacity:1;stroke-width:0.03310381"
     d="M 17.681023,17.13364 C 17.4617,17.04943 17.20617,16.804912 17.109785,16.587019 c -0.08311,-0.187875 -0.11311,-0.508656 -0.06441,-0.688581 0.01974,-0.07292 0.11973,-0.274023 0.222205,-0.446901 0.689032,-1.162421 1.029738,-2.229858 1.102608,-3.454482 0.09117,-1.53216 -0.291931,-3.0537506 -1.089124,-4.3257728 -0.215059,-0.343153 -0.277587,-0.5409036 -0.256013,-0.8096688 0.03022,-0.3765046 0.276731,-0.7329304 0.614293,-0.8882056 0.240075,-0.1104315 0.656756,-0.1023527 0.900717,0.017464 0.241082,0.1184024 0.348334,0.2359716 0.612816,0.6717642 0.895157,1.4749701 1.35034,3.1217667 1.349633,4.882812 -5.23e-4,1.304724 -0.21001,2.385601 -0.692916,3.575212 -0.308272,0.759409 -0.802785,1.628058 -1.044739,1.835162 -0.28704,0.245695 -0.72143,0.316963 -1.083835,0.177818 z"
     id="path4877"
     inkscape:connector-curvature="0"
     transform="scale(0.15)" />
  <path
     style="opacity:0;fill:#003a83;fill-opacity:1;stroke-width:0.03310381"
     d="M 17.681023,17.13364 C 17.4617,17.04943 17.20617,16.804912 17.109785,16.587019 c -0.08311,-0.187875 -0.11311,-0.508656 -0.06441,-0.688581 0.01974,-0.07292 0.11973,-0.274023 0.222205,-0.446901 0.689032,-1.162421 1.029738,-2.229858 1.102608,-3.454482 0.09117,-1.53216 -0.291931,-3.0537506 -1.089124,-4.3257728 -0.215059,-0.343153 -0.277587,-0.5409036 -0.256013,-0.8096688 0.03022,-0.3765046 0.276731,-0.7329304 0.614293,-0.8882056 0.240075,-0.1104315 0.656756,-0.1023527 0.900717,0.017464 0.241082,0.1184024 0.348334,0.2359716 0.612816,0.6717642 0.895157,1.4749701 1.35034,3.1217667 1.349633,4.882812 -5.23e-4,1.304724 -0.21001,2.385601 -0.692916,3.575212 -0.308272,0.759409 -0.802785,1.628058 -1.044739,1.835162 -0.28704,0.245695 -0.72143,0.316963 -1.083835,0.177818 z"
     id="path4879"
     inkscape:connector-curvature="0"
     transform="scale(0.15)" />
</svg>
